# xmcd
#
# Track frame offsets:
# 150
# 10813
# 22581
# 31418
# 44248
#
# Disc length: 750 seconds
#
# Revision: 1
# Processed by: cddbd v1.5.2PL0 Copyright (c) Steve Scherf et al.
# Submitted via: CedeCatalogueitor 2.6.0.6 http://personales.ya.com/cdcatalogueitor
#
DISCID=3202ec05
DTITLE=The Blakes - Sampler
DYEAR=1900
DGENRE=
TTITLE0=Don't Want That Now
TTITLE1=Commit
TTITLE2=Magoo
TTITLE3=Don't Bother Me
TTITLE4=Two Times
EXTD=
EXTT0=
EXTT1=
EXTT2=
EXTT3=
EXTT4=
PLAYORDER=
